<?xml version="1.0" encoding="UTF-8"?>
<svg width="91px" height="34px" viewBox="0 0 91 34" version="1.1" xmlns="http://www.w3.org/2000/svg" xmlns:xlink="http://www.w3.org/1999/xlink">
    <!-- Generator: Sketch 48.2 (47327) - http://www.bohemiancoding.com/sketch -->
    <title>mdpi/pswk.</title>
    <desc>Created with Sketch.</desc>
    <defs></defs>
    <g id="About" stroke="none" stroke-width="1" fill="none" fill-rule="evenodd" transform="translate(-1240.000000, -23.000000)">
        <path d="M1250.11719,31.1132812 C1251.2129,31.1132812 1252.24414,31.3120097 1253.21094,31.7094727 C1254.17774,32.1069356 1255.02368,32.6655237 1255.74878,33.3852539 C1256.47388,34.1049841 1257.0459,35.0153754 1257.46484,36.1164551 C1257.88379,37.2175348 1258.09326,38.4287043 1258.09326,39.75 C1258.09326,41.0712957 1257.88379,42.2824652 1257.46484,43.3835449 C1257.0459,44.4846246 1256.47388,45.3950159 1255.74878,46.1147461 C1255.02368,46.8344763 1254.17774,47.3930644 1253.21094,47.7905273 C1252.24414,48.1879903 1251.2129,48.3867188 1250.11719,48.3867188 C1249.02148,48.3867188 1248.02247,48.1826192 1247.12012,47.7744141 C1246.21777,47.3662089 1245.5249,46.7861366 1245.0415,46.0341797 L1245.0415,56.0566406 L1240.40088,56.0566406 L1240.40088,31.4355469 L1244.7998,31.4355469 L1244.92871,33.6591797 C1245.37989,32.8535116 1246.07006,32.2277854 1246.99927,31.7819824 C1247.92847,31.3361794 1248.96777,31.1132812 1250.11719,31.1132812 Z M1249.06982,44.5356445 C1250.32667,44.5356445 1251.37133,44.1032758 1252.20386,43.2385254 C1253.03638,42.373775 1253.45264,41.2109448 1253.45264,39.75 C1253.45264,38.2890552 1253.03638,37.126225 1252.20386,36.2614746 C1251.37133,35.3967242 1250.32667,34.9643555 1249.06982,34.9643555 C1247.80224,34.9643555 1246.74952,35.4047808 1245.91162,36.2856445 C1245.07373,37.1665083 1244.65479,38.3212819 1244.65479,39.75 C1244.65479,41.1787181 1245.07373,42.3334917 1245.91162,43.2143555 C1246.74952,44.0952192 1247.80224,44.5356445 1249.06982,44.5356445 Z M1267.42285,48.3222656 C1265.48925,48.3222656 1263.87794,47.9355507 1262.58887,47.1621094 C1261.2998,46.388668 1260.51026,45.2392654 1260.22021,43.7138672 L1264.10352,42.6181641 C1264.56543,44.261727 1265.67187,45.0834961 1267.42285,45.0834961 C1268.09961,45.0834961 1268.66357,44.9572767 1269.11475,44.704834 C1269.56592,44.4523913 1269.78613,44.0253936 1269.77539,43.4238281 C1269.77539,43.0908186 1269.68408,42.8061535 1269.50146,42.5698242 C1269.31885,42.3334949 1269.03687,42.1293954 1268.65552,41.9575195 C1268.27417,41.7856437 1267.8982,41.6406256 1267.52759,41.5224609 C1267.15698,41.4042963 1266.66553,41.2619637 1266.05322,41.095459 C1265.44091,40.9289542 1264.93067,40.7705086 1264.52246,40.6201172 C1263.96386,40.4267568 1263.47779,40.2199718 1263.06421,39.9997559 C1262.65063,39.7795399 1262.2478,39.4948748 1261.85571,39.145752 C1261.46362,38.7966291 1261.16284,38.3642604 1260.95337,37.8486328 C1260.7439,37.3330052 1260.63916,36.7421908 1260.63916,36.0761719 C1260.63916,34.4433512 1261.23803,33.208012 1262.43579,32.3701172 C1263.63355,31.5322224 1265.19921,31.1132812 1267.13281,31.1132812 C1268.85157,31.1132812 1270.29638,31.4677699 1271.46729,32.1767578 C1272.63819,32.8857457 1273.37939,33.99218 1273.69092,35.4960938 L1270.09766,36.3017578 C1269.64648,34.9052665 1268.66358,34.2070312 1267.14893,34.2070312 C1266.49365,34.2070312 1265.95117,34.3305652 1265.52148,34.5776367 C1265.09179,34.8247083 1264.87695,35.189939 1264.87695,35.6733398 C1264.87695,35.8559579 1264.90918,36.0224602 1264.97363,36.1728516 C1265.03809,36.3232429 1265.15088,36.4575189 1265.31201,36.5756836 C1265.47315,36.6938482 1265.62891,36.795898 1265.7793,36.8818359 C1265.92969,36.9677739 1266.1499,37.056396 1266.43994,37.1477051 C1266.72998,37.2390141 1266.97168,37.3088376 1267.16504,37.3571777 C1267.3584,37.4055178 1267.64038,37.4780269 1268.01099,37.574707 C1268.38159,37.6713872 1268.66894,37.7465818 1268.87305,37.800293 C1269.46387,37.9614266 1269.98218,38.1225578 1270.42798,38.2836914 C1270.87378,38.444825 1271.34912,38.6704087 1271.854,38.9604492 C1272.35889,39.2504897 1272.77514,39.5754377 1273.10278,39.9353027 C1273.43042,40.2951678 1273.70166,40.7517062 1273.9165,41.3049316 C1274.13135,41.8581571 1274.23877,42.4731411 1274.23877,43.1499023 C1274.23877,44.0629928 1274.05347,44.8632778 1273.68286,45.5507812 C1273.31225,46.2382847 1272.80469,46.7780742 1272.16016,47.170166 C1271.51562,47.5622578 1270.79859,47.852294 1270.00903,48.0402832 C1269.21948,48.2282724 1268.35743,48.3222656 1267.42285,48.3222656 Z M1298.4248,31.4355469 L1303.22656,31.4355469 L1297.42578,48.0161133 L1293.12354,48.0161133 L1289.28857,37.0751953 L1285.42139,48.0161133 L1281.05469,48.0161133 L1275.3667,31.4355469 L1280.15234,31.4355469 L1283.56836,42.215332 L1287.48389,31.4355469 L1291.04492,31.4355469 L1294.94434,42.1831055 L1298.4248,31.4355469 Z M1316.79395,48 L1311.46045,41.0390625 L1310.49365,41.0390625 L1310.49365,48 L1305.80469,48 L1305.80469,23.25 L1310.49365,23.25 L1310.49365,37.8164062 L1311.36377,37.8164062 L1316.56836,31.4355469 L1321.82129,31.4355469 L1315.29541,39.121582 L1322.43359,48 L1316.79395,48 Z M1327.70264,48.3222656 C1326.98291,48.3222656 1326.36255,48.0617702 1325.84155,47.5407715 C1325.32055,47.0197728 1325.06006,46.3994177 1325.06006,45.6796875 C1325.06006,44.9492151 1325.32055,44.3208034 1325.84155,43.7944336 C1326.36255,43.2680638 1326.98291,43.0048828 1327.70264,43.0048828 C1328.43311,43.0048828 1329.06152,43.2680638 1329.58789,43.7944336 C1330.11426,44.3208034 1330.37744,44.9492151 1330.37744,45.6796875 C1330.37744,46.3994177 1330.11426,47.0197728 1329.58789,47.5407715 C1329.06152,48.0617702 1328.43311,48.3222656 1327.70264,48.3222656 Z" id="pswk." fill="#404040"></path>
    </g>
</svg>